<?xml version="1.0" encoding="iso-8859-1"?>
<!-- Generator: Adobe Illustrator 19.2.1, SVG Export Plug-In . SVG Version: 6.00 Build 0)  -->
<svg version="1.1" id="Layer_1" xmlns="http://www.w3.org/2000/svg" xmlns:xlink="http://www.w3.org/1999/xlink" x="0px" y="0px"
	 viewBox="0 0 40 40" style="enable-background:new 0 0 40 40;" xml:space="preserve">
<g>
	<path style="fill:#DBF2FF;" d="M5.5,37.5V4c0-1.379,1.122-2.5,2.5-2.5h24c1.378,0,2.5,1.121,2.5,2.5v33.5H5.5z"/>
	<g>
		<path style="fill:#7496C4;" d="M32,2c1.103,0,2,0.897,2,2v33H6V4c0-1.103,0.897-2,2-2H32 M32,1H8C6.343,1,5,2.343,5,4v34h30V4
			C35,2.343,33.657,1,32,1L32,1z"/>
	</g>
</g>
<g>
	<path style="fill:#FFFFFF;" d="M20,32.5c-5.238,0-9.5-4.262-9.5-9.5s4.262-9.5,9.5-9.5s9.5,4.262,9.5,9.5S25.238,32.5,20,32.5z"/>
	<g>
		<path style="fill:#788B9C;" d="M20,14c4.963,0,9,4.037,9,9s-4.037,9-9,9s-9-4.037-9-9S15.037,14,20,14 M20,13
			c-5.523,0-10,4.477-10,10s4.477,10,10,10s10-4.477,10-10S25.523,13,20,13L20,13z"/>
	</g>
</g>
<g>
	<path style="fill:#8BB7F0;" d="M20,32.5c-5.238,0-9.5-4.262-9.5-9.5c0-0.172,0.006-0.348,0.019-0.532
		c0.754,0.453,2.054,1.032,3.767,1.032c1.374,0,3.169-0.698,5.07-1.438c1.795-0.698,3.65-1.42,4.93-1.42
		c2.128,0,4.413,0.94,5.142,1.267C29.477,22.31,29.5,22.662,29.5,23C29.5,28.238,25.238,32.5,20,32.5z"/>
	<g>
		<path style="fill:#4E7AB5;" d="M24.286,21.143c1.825,0,3.79,0.734,4.676,1.109C28.988,22.519,29,22.764,29,23c0,4.963-4.037,9-9,9
			c-4.867,0-8.844-3.884-8.996-8.715C11.823,23.66,12.937,24,14.286,24c1.468,0,3.305-0.715,5.251-1.471
			C21.289,21.847,23.1,21.143,24.286,21.143 M24.286,20.143c-2.715,0-7.41,2.857-10,2.857c-2.59,0-4.172-1.429-4.172-1.429
			C10.046,22.039,10,22.514,10,23c0,5.523,4.477,10,10,10s10-4.477,10-10c0-0.486-0.046-0.961-0.114-1.429
			C29.886,21.571,27,20.143,24.286,20.143L24.286,20.143z"/>
	</g>
</g>
<line style="fill:#DBF2FF;stroke:#7496C4;stroke-miterlimit:10;" x1="5.75" y1="8.5" x2="34.25" y2="8.5"/>
<g>
	<circle style="fill:#4E7AB5;" cx="9" cy="5" r="1"/>
</g>
<g>
	<circle style="fill:#4E7AB5;" cx="13" cy="5" r="1"/>
</g>
<g>
	<circle style="fill:#C74343;" cx="31" cy="5" r="1"/>
</g>
<rect x="30" y="37" style="fill:#7496C4;" width="5" height="2"/>
<rect x="5" y="37" style="fill:#7496C4;" width="5" height="2"/>
</svg>
